<svg xmlns="http://www.w3.org/2000/svg" viewBox="-11 -11 22 22">
    <circle fill="#282C34" cx="0" cy="0" r="12"/>
    <circle stroke="#55EFC4" strokeWidth=".5" fill="transparent" cx="0" cy="0" r="2"/>
    <path stroke="#55EFC4" strokeWidth=".5" fill="transparent" d="M-2,0 L-3,1 Q-5,3 -7,1 L-8,0 L-7,-1 Q-5,-3 -3,-1"/>
    <path stroke="#55EFC4" strokeWidth=".5" fill="transparent" d="M0,-2 L-1,-3 Q-3,-5 -1,-7 L0,-8 L1,-7 Q3,-5 1,-3"/>
    <path stroke="#55EFC4" strokeWidth=".5" fill="transparent" d="M2,0 L3,-1 Q5,-3 7,-1 L8,0 L7,1 Q5,3 3,1"/>
    <path stroke="#55EFC4" strokeWidth=".5" fill="transparent" d="M0,2 L1,3 Q3,5 1,7 L0,8 L-1,7 Q-3,5 -1,3"/>
    <path stroke="#55EFC4" strokeWidth=".5" fill="transparent" d="M-1.4,1.4 L-2.5,2.5 Q-5,5 -7.5,2.5 L-10,0 L-7.5,-2.5 Q-6.4,-3.6 -4.7,-3.5"/>
    <path stroke="#55EFC4" strokeWidth=".5" fill="transparent" d="M-1.4,-1.4 L-2.5,-2.5 Q-5,-5 -2.5,-7.5 L0,-10 L2.5,-7.5 Q3.6,-6.4 3.5,-4.7"/>
    <path stroke="#55EFC4" strokeWidth=".5" fill="transparent" d="M1.4,-1.4 L2.5,-2.5 Q5,-5 7.5,-2.5 L10,0 L7.5,2.5 Q6.4,3.6 4.7,3.5"/>
    <path stroke="#55EFC4" strokeWidth=".5" fill="transparent" d="M1.4,1.4 L2.5,2.5 Q5,5 2.5,7.5 L0,10 L-2.5,7.5 Q-3.6,6.4 -3.5,4.7"/>
    <path stroke="#55EFC4" strokeWidth=".5" fill="transparent" d="M0,2 L-1.5,3.5 Q-5,7 -8.5,3.5 L-7.5,2.5"/>
    <path stroke="#55EFC4" strokeWidth=".5" fill="transparent" d="M-2,0 L-3.5,-1.5 Q-7,-5 -3.5,-8.5 L-2.5,-7.5"/>
    <path stroke="#55EFC4" strokeWidth=".5" fill="transparent" d="M0,-2 L1.5,-3.5 Q5,-7 8.5,-3.5 L7.5,-2.5"/>
    <path stroke="#55EFC4" strokeWidth=".5" fill="transparent" d="M2,0 L3.5,1.5 Q7,5 3.5,8.5 L2.5,7.5"/>
    <path stroke="#55EFC4" strokeWidth=".5" fill="transparent" d="M-5,5 Q-5,7 -3.5,8.5 L-2.5,7.5"/>
    <path stroke="#55EFC4" strokeWidth=".5" fill="transparent" d="M-5,-5 Q-7,-5 -8.5,-3.5 L-7.5,-2.5"/>
    <path stroke="#55EFC4" strokeWidth=".5" fill="transparent" d="M5,-5 Q5,-7 3.5,-8.5 L2.5,-7.5"/>
    <path stroke="#55EFC4" strokeWidth=".5" fill="transparent" d="M5,5 Q7,5 8.5,3.5 L7.5,2.5"/>
</svg>